<?xml version="1.0" encoding="UTF-8"?>
<svg width="1078px" height="247px" viewBox="0 0 1078 247" version="1.1" xmlns="http://www.w3.org/2000/svg" xmlns:xlink="http://www.w3.org/1999/xlink">
    <title>Untitled</title>
    <g id="Page-1" stroke="none" stroke-width="1" fill="none" fill-rule="evenodd">
        <g id="logo" transform="translate(0.770000, 0.473000)">
            <path d="M389.012,63.736 L379.755,63.736 L379.755,179.227 L303.03,63.736 L290.305,63.736 L290.305,190.446 L299.563,190.446 L299.563,74.727 L376.863,190.444 L389.013,190.444 L389.013,63.736 L389.012,63.736 Z M476.571,190.446 L485.83,190.446 L485.83,131.893 C485.891046,127.180176 485.267199,122.483475 483.978,117.95 C482.853737,114.017265 480.811338,110.40785 478.019,107.419 C475.052385,104.383189 471.401932,102.101912 467.373,100.766 C462.237406,99.1044172 456.858154,98.321753 451.462,98.451 C440.195333,98.451 431.709333,100.514667 426.004,104.642 C420.298667,108.769333 416.981667,115.076 416.053,123.562 L425.194,123.562 C425.705793,118.648817 428.461322,114.248609 432.658,111.643 C436.862,109.021 443.168667,107.709667 451.578,107.709 C457.286,107.709 461.799,108.403 465.117,109.791 C468.121467,110.939508 470.732235,112.92787 472.638,115.519 C474.389189,118.093611 475.500016,121.049302 475.878,124.14 C476.361659,127.745544 476.59555,131.380204 476.578,135.018 L465.93,135.018 C448.417333,135.018 435.284,137.872333 426.53,143.581 C417.776,149.289667 413.398,157.274 413.396,167.534 C413.35034,171.100727 414.080887,174.63472 415.537,177.891 C416.902764,180.933166 418.893984,183.653549 421.381,185.875 C423.949538,188.13331 426.937747,189.863576 430.175,190.967 C433.710627,192.185887 437.428302,192.792592 441.168,192.761 C444.070696,192.762173 446.970212,192.568956 449.847,192.182 C452.788101,191.77421 455.677835,191.056553 458.468,190.041 C461.552062,188.908084 464.517041,187.474162 467.32,185.76 C470.603845,183.74338 473.702025,181.438988 476.578,178.874 L476.578,190.446 L476.571,190.446 Z M476.571,167.646 C474.773812,169.592662 472.861016,171.42932 470.843,173.146 C468.590699,175.075307 466.170016,176.798868 463.61,178.296 C460.959257,179.851974 458.146174,181.11315 455.221,182.057 C452.24988,183.021578 449.144767,183.50962 446.021,183.503066 C438.769,183.503066 433.060333,182.018 428.895,179.048 C424.814428,176.249163 422.455151,171.552505 422.646,166.608 C422.646,159.434 425.944,153.918333 432.54,150.061 C439.136,146.203667 449.145667,144.275 462.569,144.275 L476.569,144.275 L476.569,167.65 L476.571,167.646 Z M524.786,100.762 L515.53,100.762 L515.53,190.442 L524.788,190.442 L524.788,100.762 L524.786,100.762 Z M524.901,63.732 L515.644,63.732 L515.644,78.197 L524.901,78.197 L524.901,63.736 L524.901,63.732 Z M611.419,100.762 L582.489,177.713 L553.676,100.762 L544.303,100.762 L578.324,190.442 L586.655,190.442 L620.676,100.762 L611.419,100.762 L611.419,100.762 Z M688.794008,191.027 C692.651532,189.943937 696.292573,188.20157 699.556,185.877 C706.105477,181.204467 710.586592,174.173061 712.056,166.263 L702.914,166.263 C702.634516,168.967287 701.590828,171.536099 699.905,173.669 C698.166501,175.865076 696.026548,177.710811 693.599,179.108 C690.981592,180.61826 688.153933,181.73045 685.209,182.408 C682.176931,183.135208 679.070054,183.504396 675.952,183.508 C671.780533,183.548821 667.638798,182.80244 663.744,181.308 C659.998684,179.840988 656.621161,177.569507 653.85,174.654 C650.82919,171.420356 648.470516,167.626706 646.907,163.487 C644.999086,158.401033 643.867741,153.05681 643.551,147.634 L714.138,147.634 L714.138,145.551 C714.231654,138.870709 713.294989,132.2159 711.361,125.821 C709.72608,120.395644 707.010251,115.357211 703.377,111.009 C699.937285,106.983575 695.623127,103.797466 690.764,101.694 C685.533011,99.4760342 679.897196,98.3725751 674.216,98.454 C668.647896,98.3790339 663.126955,99.483222 658.016,101.694 C653.179469,103.836528 648.873402,107.016661 645.403,111.009 C641.694575,115.342511 638.899992,120.380652 637.187,125.821 C633.290876,138.750604 633.330909,152.547224 637.302,165.454 C639.090497,170.940247 641.985511,176.001246 645.808,180.324 C649.439562,184.351559 653.927056,187.514639 658.941,189.581 C664.343488,191.761837 670.126492,192.843919 675.952,192.764 C680.293057,192.79188 684.616336,192.207116 688.794008,191.027 L688.794008,191.027 Z M643.549,138.376 C644.176933,133.698659 645.482983,129.137757 647.426,124.837 C649.049573,121.247757 651.325095,117.990957 654.137,115.232 C656.734199,112.726295 659.829116,110.794527 663.221,109.562 C666.748596,108.305744 670.469524,107.679215 674.214,107.711 C681.65046,107.516067 688.864082,110.260025 694.291,115.348 C699.729667,120.439333 703.220333,128.115333 704.763,138.376 L643.549,138.376 L643.549,138.376 Z M826.81,155.965 C825.65,152.956333 824.626667,150.294667 823.74,147.98 C822.905917,145.782671 821.899449,143.65471 820.73,141.616 C819.595733,139.666725 818.257555,137.84349 816.738,136.177 C814.926879,134.237509 812.953002,132.45667 810.838,130.854 C814.907414,130.056296 818.804581,128.548272 822.351,126.399 C825.501832,124.473787 828.252005,121.959245 830.451,118.993 C832.606853,116.023009 834.215401,112.69213 835.201,109.157 C836.267626,105.294625 836.792641,101.302823 836.761,97.296 C836.761,90.5093333 835.604333,84.9356667 833.291,80.575 C831.140904,76.3997975 827.925712,72.8668809 823.971,70.334 C819.898088,67.7971434 815.383686,66.0503443 810.664,65.185 C805.572786,64.2097853 800.399758,63.7252324 795.216,63.7377542 L738.166,63.7377542 L738.166,190.448 L747.424,190.448 L747.424,133.282 L791.743,133.282 C794.87142,133.210807 797.975865,133.843384 800.827,135.133 C803.41379,136.370402 805.748352,138.077328 807.712,140.167 C809.798573,142.403742 811.569937,144.914941 812.977,147.631 C814.529613,150.592618 815.901457,153.645539 817.085,156.773 L829.7,190.446 L839.88,190.446 L826.81,155.965 Z M747.424,72.995 L794.058,72.995 C805.010667,72.995 813.245667,74.866 818.763,78.608 C824.280333,82.35 827.039333,88.5793333 827.04,97.296 C827.156702,101.558511 826.446974,105.803296 824.95,109.796 C823.634641,113.104568 821.409515,115.97317 818.532,118.07 C815.219125,120.369208 811.450058,121.928199 807.481,122.641 C802.179411,123.641735 796.790662,124.107074 791.396,124.03 L747.424,124.03 L747.424,72.993 L747.424,72.995 Z M953.59,63.738 L856.16,63.738 L856.16,72.995 L900.02,72.995 L900.02,190.446 L909.27,190.446 L909.27,72.993 L953.59,72.993 L953.59,63.736 L953.59,63.738 Z M1076.33,97.638 C1075.20846,92.401805 1073.08627,87.4314704 1070.08,83 C1067.07113,78.5642453 1063.31142,74.6874536 1058.97,71.544 C1054.44338,68.2784585 1049.4232,65.7585788 1044.1,64.08 C1038.47136,62.2887228 1032.59673,61.3908245 1026.69,61.419 C1018.45908,61.2938186 1010.28915,62.8492017 1002.68,65.99 C995.685461,68.931906 989.43658,73.3993945 984.39,79.066 C979.158514,85.0513278 975.201366,92.039795 972.76,99.605 C969.94931,108.351367 968.581415,117.497012 968.71,126.683 C968.585058,135.963401 969.952495,145.203567 972.76,154.05 C975.17669,161.684777 979.112216,168.752057 984.33,174.827 C989.350273,180.539392 995.576952,185.065091 1002.56,188.077 C1010.18997,191.300061 1018.40827,192.896381 1026.69,192.764 C1032.87515,192.815307 1039.03427,191.957478 1044.97,190.218 C1050.34458,188.649375 1055.39917,186.142051 1059.9,182.812 C1064.23066,179.55656 1067.88543,175.488412 1070.66,170.835 C1073.58609,165.876276 1075.51236,160.392333 1076.33,154.693 L1066.72,154.693 C1065.03,164.105 1060.63333,171.26 1053.53,176.158 C1046.42667,181.056 1037.40333,183.505333 1026.46,183.506 C1019.70223,183.602676 1012.99357,182.344589 1006.73,179.806 C1000.90526,177.398336 995.716611,173.67558 991.57,168.929 C987.137232,163.743369 983.827597,157.695113 981.85,151.166 C979.444026,143.235531 978.290149,134.978223 978.43,126.692 C978.28399,118.44346 979.438133,110.223399 981.85,102.334 C983.819802,95.8883399 987.132496,89.9329887 991.57,84.86 C995.769655,80.193815 1000.99751,76.5688935 1006.84,74.272 C1013.20269,71.8107863 1019.97849,70.5931118 1026.8,70.685 C1031.71701,70.6481344 1036.61165,71.3503066 1041.32,72.768 C1045.58909,74.0370591 1049.63187,75.9700366 1053.3,78.496 C1056.66942,80.8236752 1059.60682,83.7214729 1061.98,87.059 C1064.24564,90.2395738 1065.85683,93.838571 1066.72,97.647 L1076.33,97.647 L1076.33,97.638 Z" id="NaiveRTC_拷贝" fill="#323332"></path>
            <polygon id="矩形_1_拷贝_2" fill="#2366D1" points="-5.68434189e-14 184.427 106.811 123 213.155 184.974 106.344 246.396"></polygon>
            <polygon id="矩形_1_拷贝" fill="#609DFF" points="-5.68434189e-14 122.427 106.811 61 213.155 122.974 106.344 184.396"></polygon>
            <polygon id="矩形_1" fill="#A4C7FF" points="-5.68434189e-14 61.427 106.811 -2.84217094e-14 213.155 61.974 106.344 123.396"></polygon>
        </g>
    </g>
</svg>