<?xml version="1.0" encoding="UTF-8"?>
<svg width="1053px" height="247px" viewBox="0 0 1053 247" version="1.1" xmlns="http://www.w3.org/2000/svg" xmlns:xlink="http://www.w3.org/1999/xlink">
    <title>Untitled</title>
    <g id="Page-1" stroke="none" stroke-width="1" fill="none" fill-rule="evenodd">
        <g id="logo" transform="translate(0.770000, 0.473000)" fill-rule="nonzero">
            <path d="M354.755,63.736 L354.755,179.227 L278.03,63.736 L265.305,63.736 L265.305,190.446 L274.563,190.446 L274.563,74.727 L351.863,190.444 L364.013,190.444 L364.013,63.736 L354.755,63.736 Z M451.571,190.446 L460.83,190.446 L460.83,131.893 C460.891046,127.180176 460.267199,122.483475 458.978,117.95 C457.853737,114.017265 455.811338,110.40785 453.019,107.419 C450.052385,104.383189 446.401932,102.101912 442.373,100.766 C437.237406,99.1044172 431.858154,98.321753 426.462,98.451 C415.195333,98.451 406.709333,100.514667 401.004,104.642 C395.298667,108.769333 391.981667,115.076 391.053,123.562 L400.194,123.562 C400.705793,118.648817 403.461322,114.248609 407.658,111.643 C411.862,109.021 418.168667,107.709667 426.578,107.709 C432.286,107.709 436.799,108.403 440.117,109.791 C443.121467,110.939508 445.732235,112.92787 447.638,115.519 C449.389189,118.093611 450.500016,121.049302 450.878,124.14 C451.361659,127.745544 451.59555,131.380204 451.578,135.018 L440.93,135.018 C423.417333,135.018 410.284,137.872333 401.53,143.581 C392.776,149.289667 388.398,157.274 388.396,167.534 C388.35034,171.100727 389.080887,174.63472 390.537,177.891 C391.902764,180.933166 393.893984,183.653549 396.381,185.875 C398.949538,188.13331 401.937747,189.863576 405.175,190.967 C408.710627,192.185887 412.428302,192.792592 416.168,192.761 C419.070696,192.762173 421.970212,192.568956 424.847,192.182 C427.788101,191.77421 430.677835,191.056553 433.468,190.041 C436.552062,188.908084 439.517041,187.474162 442.32,185.76 C445.603845,183.74338 448.702025,181.438988 451.578,178.874 L451.578,190.446 L451.571,190.446 Z M451.571,167.646 C449.773812,169.592662 447.861016,171.42932 445.843,173.146 C443.590699,175.075307 441.170016,176.798868 438.61,178.296 C435.959257,179.851974 433.146174,181.11315 430.221,182.057 C427.24988,183.021578 424.144767,183.50962 421.021,183.503131 C413.769,183.503131 408.060333,182.018 403.895,179.048 C399.814428,176.249163 397.455151,171.552505 397.646,166.608 C397.646,159.434 400.944,153.918333 407.54,150.061 C414.136,146.203667 424.145667,144.275 437.569,144.275 L451.569,144.275 L451.569,167.65 L451.571,167.646 Z M499.786,100.762 L490.53,100.762 L490.53,190.442 L499.788,190.442 L499.788,100.762 L499.786,100.762 Z M499.901,63.732 L490.644,63.732 L490.644,78.197 L499.901,78.197 L499.901,63.736 L499.901,63.732 Z M586.419,100.762 L557.489,177.713 L528.676,100.762 L519.303,100.762 L553.324,190.442 L561.655,190.442 L595.676,100.762 L586.419,100.762 L586.419,100.762 Z M663.794008,191.027 C667.651532,189.943937 671.292573,188.20157 674.556,185.877 C681.105477,181.204467 685.586592,174.173061 687.056,166.263 L677.914,166.263 C677.634516,168.967287 676.590828,171.536099 674.905,173.669 C673.166501,175.865076 671.026548,177.710811 668.599,179.108 C665.981592,180.61826 663.153933,181.73045 660.209,182.408 C657.176931,183.135208 654.070054,183.504396 650.952,183.508 C646.780533,183.548821 642.638798,182.80244 638.744,181.308 C634.998684,179.840988 631.621161,177.569507 628.85,174.654 C625.82919,171.420356 623.470516,167.626706 621.907,163.487 C619.999086,158.401033 618.867741,153.05681 618.551,147.634 L689.138,147.634 L689.138,145.551 C689.231654,138.870709 688.294989,132.2159 686.361,125.821 C684.72608,120.395644 682.010251,115.357211 678.377,111.009 C674.937285,106.983575 670.623127,103.797466 665.764,101.694 C660.533011,99.4760342 654.897196,98.3725751 649.216,98.454 C643.647896,98.3790339 638.126955,99.483222 633.016,101.694 C628.179469,103.836528 623.873402,107.016661 620.403,111.009 C616.694575,115.342511 613.899992,120.380652 612.187,125.821 C608.290876,138.750604 608.330909,152.547224 612.302,165.454 C614.090497,170.940247 616.985511,176.001246 620.808,180.324 C624.439562,184.351559 628.927056,187.514639 633.941,189.581 C639.343488,191.761837 645.126492,192.843919 650.952,192.764 C655.293057,192.79188 659.616336,192.207116 663.794008,191.027 L663.794008,191.027 Z M618.549,138.376 C619.176933,133.698659 620.482983,129.137757 622.426,124.837 C624.049573,121.247757 626.325095,117.990957 629.137,115.232 C631.734199,112.726295 634.829116,110.794527 638.221,109.562 C641.748596,108.305744 645.469524,107.679215 649.214,107.711 C656.65046,107.516067 663.864082,110.260025 669.291,115.348 C674.729667,120.439333 678.220333,128.115333 679.763,138.376 L618.549,138.376 L618.549,138.376 Z M801.81,155.965 C800.65,152.956333 799.626667,150.294667 798.74,147.98 C797.905917,145.782671 796.899449,143.65471 795.73,141.616 C794.595733,139.666725 793.257555,137.84349 791.738,136.177 C789.926879,134.237518 787.953002,132.45667 785.838,130.854 C789.907414,130.056296 793.804581,128.548272 797.351,126.399 C800.501832,124.473787 803.252005,121.959245 805.451,118.993 C807.606853,116.023009 809.215401,112.69213 810.201,109.157 C811.267626,105.294625 811.792641,101.302823 811.761,97.296 C811.761,90.5093333 810.604333,84.9356667 808.291,80.575 C806.140904,76.3997975 802.925712,72.8668809 798.971,70.334 C794.898088,67.7971434 790.383686,66.0503443 785.664,65.185 C780.572786,64.2097853 775.399758,63.7252324 770.216,63.7375176 L713.166,63.7375176 L713.166,190.448 L722.424,190.448 L722.424,133.282 L766.743,133.282 C769.87142,133.210807 772.975865,133.843384 775.827,135.133 C778.41379,136.370402 780.748352,138.077328 782.712,140.167 C784.798573,142.403742 786.569937,144.914941 787.977,147.631 C789.529613,150.592618 790.901457,153.645539 792.085,156.773 L804.7,190.446 L814.88,190.446 L801.81,155.965 Z M722.424,72.995 L769.058,72.995 C780.010667,72.995 788.245667,74.866 793.763,78.608 C799.280333,82.35 802.039333,88.5793333 802.04,97.296 C802.156702,101.558511 801.446974,105.803296 799.95,109.796 C798.634641,113.104568 796.409515,115.97317 793.532,118.07 C790.219125,120.369208 786.450058,121.928199 782.481,122.641 C777.179411,123.641735 771.790662,124.107074 766.396,124.03 L722.424,124.03 L722.424,72.993 L722.424,72.995 Z M928.59,63.738 L831.16,63.738 L831.16,72.995 L875.02,72.995 L875.02,190.446 L884.27,190.446 L884.27,72.993 L928.59,72.993 L928.59,63.736 L928.59,63.738 Z M1051.33,97.638 C1050.20846,92.401805 1048.08627,87.4314704 1045.08,83 C1042.07113,78.5642453 1038.31142,74.6874536 1033.97,71.544 C1029.44338,68.2784585 1024.4232,65.7585788 1019.1,64.08 C1013.47136,62.2887228 1007.59673,61.3908245 1001.69,61.419 C993.45908,61.2938186 985.28915,62.8492017 977.68,65.99 C970.685461,68.931906 964.43658,73.3993945 959.39,79.066 C954.158514,85.0513278 950.201366,92.039795 947.76,99.605 C944.94931,108.351367 943.581415,117.497012 943.71,126.683 C943.585058,135.963401 944.952495,145.203567 947.76,154.05 C950.17669,161.684777 954.112216,168.752057 959.33,174.827 C964.350273,180.539392 970.576952,185.065091 977.56,188.077 C985.18997,191.300061 993.40827,192.896381 1001.69,192.764 C1007.87515,192.815307 1014.03427,191.957478 1019.97,190.218 C1025.34458,188.649375 1030.39917,186.142051 1034.9,182.812 C1039.23066,179.55656 1042.88543,175.488412 1045.66,170.835 C1048.58609,165.876276 1050.51236,160.392333 1051.33,154.693 L1041.72,154.693 C1040.03,164.105 1035.63333,171.26 1028.53,176.158 C1021.42667,181.056 1012.40333,183.505333 1001.46,183.506 C994.70223,183.602676 987.99357,182.344589 981.73,179.806 C975.90526,177.398336 970.716611,173.67558 966.57,168.929 C962.137232,163.743369 958.827597,157.695113 956.85,151.166 C954.444026,143.235531 953.290149,134.978223 953.43,126.692 C953.28399,118.44346 954.438133,110.223399 956.85,102.334 C958.819802,95.8883399 962.132496,89.9329887 966.57,84.86 C970.769655,80.193815 975.99751,76.5688935 981.84,74.272 C988.20269,71.8107863 994.97849,70.5931118 1001.8,70.685 C1006.71701,70.6481344 1011.61165,71.3503066 1016.32,72.768 C1020.58909,74.0370591 1024.63187,75.9700366 1028.3,78.496 C1031.66942,80.8236752 1034.60682,83.7214729 1036.98,87.059 C1039.24564,90.2395738 1040.85683,93.838571 1041.72,97.647 L1051.33,97.647 L1051.33,97.638 Z" id="NaiveRTC_拷贝" fill="#609DFF"></path>
            <polygon id="矩形_1_拷贝_2" fill="#2366D1" points="5.68434189e-14 184.427 106.811 123 213.155 184.974 106.344 246.396"></polygon>
            <polygon id="矩形_1_拷贝" fill="#609DFF" points="5.68434189e-14 122.427 106.811 61 213.155 122.974 106.344 184.396"></polygon>
            <polygon id="矩形_1" fill="#A4C7FF" points="5.68434189e-14 61.427 106.811 0 213.155 61.974 106.344 123.396"></polygon>
        </g>
    </g>
</svg>